<svg xmlns="http://www.w3.org/2000/svg" shape-rendering="geometricPrecision" text-rendering="geometricPrecision" image-rendering="optimizeQuality" fill-rule="evenodd" clip-rule="evenodd" viewBox="0 0 280 512.506"><path fill-rule="nonzero" d="M208.92 512.506h-30.017v-65.191H216.7v57.412a7.78 7.78 0 01-7.78 7.779zM140 116.215c77.321 0 140 62.679 140 140 0 77.32-62.679 140-140 140-77.32 0-140-62.68-140-140 0-77.321 62.68-140 140-140zm5.025 237.983v19.76c60.853-2.553 109.774-51.239 112.691-111.996H237.26v-10.049h20.511c-2.205-61.426-51.413-110.867-112.746-113.441v21.204h-10.049v-21.204C73.642 141.045 24.435 190.488 22.23 251.913h20.509v10.049H22.285c2.917 60.757 51.838 109.443 112.691 111.996v-19.76h10.049zm-5.026-108.768c2.601 0 5.044.691 7.155 1.899l49.268-47.256a6.263 6.263 0 018.684 9.027l-50.777 48.703c.101.69.154 1.394.154 2.111 0 4-1.621 7.62-4.242 10.241a14.44 14.44 0 01-10.242 4.242c-3.998 0-7.62-1.623-10.24-4.242a14.44 14.44 0 01-4.242-10.241c0-.968.096-1.913.278-2.828l-32.718-31.384a6.264 6.264 0 01-.172-8.855 6.264 6.264 0 018.855-.172l31.643 30.352a14.362 14.362 0 016.596-1.597zM71.079 0h31.757v65.192H63.3V7.779A7.78 7.78 0 0171.079 0zm41.806 0h55.97v65.192h-55.97V0zm66.018 0h30.017a7.78 7.78 0 017.78 7.779v57.413h-37.797V0zM216.7 75.24v54.919a146.667 146.667 0 00-37.797-16.296V75.24H216.7zM63.3 130.16V75.24h39.536v38.161A146.741 146.741 0 0063.3 130.16zm49.585-18.992V75.24h55.97v36.262A148.196 148.196 0 00140 108.678c-9.263 0-18.325.856-27.115 2.49zm55.97 401.338h-55.97v-65.191h55.97v65.191zm-66.019 0H71.079a7.78 7.78 0 01-7.779-7.779v-57.412h39.536v65.191zM63.3 437.266v-54.997a146.696 146.696 0 0039.536 16.759v38.238H63.3zm153.4-54.996v54.996h-37.797v-38.699A146.739 146.739 0 00216.7 382.27zm-47.845 18.658v36.338h-55.97v-36.004a148.254 148.254 0 0027.115 2.49c9.875 0 19.522-.973 28.855-2.824z"/></svg>